<svg width="200" height="308.998" viewBox="0 0 52.917 81.756" xml:space="preserve" xmlns="http://www.w3.org/2000/svg"><path d="M44.103 81.73c-.013 0-2.932.047-6.706.014-3.775-.034-8.569.017-10.608-.01-8.032-.108-13.305.004-19.37-.02-3.484-.014-7.367.036-7.39.011-.062-.068.214-13.821.01-37.75-.115-13.374.067-27.473.007-32.095C.01 9.208.047 5.544.04 3.74L.035.016H6.898L6.89 24.862c-.007 21.279.019 24.421.147 24.549.08.08.295.141.476.135.18-.007 2.263.038 4.626.099 2.363.061 4.385.083 4.493.049.165-.053.186-.122.134-.429-.034-.2-.086-.59-.115-.864-.03-.274-.125-.837-.21-1.252a19.886 19.886 0 0 1-.233-1.405c-.111-.947-.598-3.715-.705-4.008-.05-.138-.163-.882-.251-1.653a886.522 886.522 0 0 0-.746-6.262c-.111-.909-.228-1.923-.26-2.254l-.057-.601.27.3a77.942 77.942 0 0 1 2 2.346 98.61 98.61 0 0 0 1.605 1.862c.292.331 1.177 1.372 1.967 2.315a438.067 438.067 0 0 0 4.228 4.958c.173.198.501.582.729.852a940.95 940.95 0 0 0 2.626 3.096c1.737 2.05 2.73 3.211 3.14 3.668l.502.562 3.17.066c4.47.092 11.643.26 12.561.296.938.035 1.05-.09.558-.624a6.244 6.244 0 0 0-.415-.421c-.079-.06-9.688-9.534-12.945-12.764-.778-.771-3.766-3.724-6.64-6.561-2.874-2.837-5.226-5.191-5.226-5.23 0-.04.26-.384.576-.765.317-.38.712-.865.877-1.077.755-.967 4.948-6.192 6.264-7.807.36-.44.988-1.23 1.396-1.753.408-.524.773-.975.811-1.002.038-.028.552-.659 1.143-1.403 1.354-1.704 1.6-2.01 2.17-2.698a246.97 246.97 0 0 0 1.903-2.367c3.967-4.98 4.666-5.844 5.115-6.31L43.06 0l3.03.03c1.666.017 3.66.03 4.432.03.772.001 2.241-.05 2.313-.005.139.088-.098 7.334.029 26.352.032 4.712-.057 12.917-.002 18.235.116 11.19.015 32.81.015 35.352v1.736l-4.362.001c-2.402 0-4.308-.002-4.32-.002zM38.6 77.257c1.152-.24 2.304-.634 2.503-.855.156-.172.162-.302.064-1.373-.06-.65-.138-1.621-.174-2.157-.079-1.162-.112-1.189-1.108-.881-1.99.614-5.287.443-6.044-.314-.16-.16-.534-.795-.834-1.414-.663-1.37-.812-1.95-.932-3.634l-.064-.906 1.04-.123a73.232 73.232 0 0 1 2.293-.222c.688-.055 1.725-.144 2.304-.199.579-.054 1.828-.167 2.777-.251.949-.084 1.788-.176 1.864-.206.287-.11.431-4.498.196-5.968-.253-1.573-.736-2.604-1.65-3.514-1.2-1.198-2.483-1.661-4.64-1.676-.984-.006-1.37.038-2.131.243-1.227.33-1.444.454-1.982 1.132-.97 1.224-1.81 3.127-2.197 4.981-.573 2.741-.674 3.707-.706 6.763-.018 1.625.005 3.248.05 3.607.25 1.983.323 2.44.503 3.129.468 1.785 1.513 2.997 3.096 3.59 1.31.49 4.052.607 5.772.248zM32.437 62.65c0-.234.063-.752.139-1.152.076-.4.116-.726.088-.726-.028 0-.005-.057.05-.125.056-.07.101-.241.1-.383-.002-.453.511-2.055.846-2.638.256-.447.43-.618.823-.814 1.34-.668 2.493-.017 3.018 1.706.147.482.183.934.181 2.28-.001.922-.02 1.694-.044 1.715-.044.04-4.736.567-5.025.565-.14-.001-.176-.09-.176-.428zM19.394 76.975c.02-.098-.054-.256-.161-.351-.108-.095-.865-1.007-1.683-2.026a186.415 186.415 0 0 0-2.041-2.51c-.305-.36-.712-.854-.905-1.098a32.02 32.02 0 0 0-.655-.797 85.534 85.534 0 0 1-1.148-1.406 62.64 62.64 0 0 0-1.067-1.303c-.121-.137-.45-.538-.728-.89l-.506-.64.367-.513c.202-.281 1.005-1.368 1.785-2.415 2.565-3.445 3.154-4.258 3.154-4.359 0-.055.037-.1.082-.1.045 0 .286-.281.535-.625.25-.345.969-1.325 1.598-2.18.72-.976 1.132-1.622 1.109-1.739-.035-.178-.177-.185-3.252-.143l-3.216.044-.306.42c-.861 1.176-1.159 1.604-1.159 1.666 0 .037-.056.127-.125.2-.069.073-.463.666-.877 1.318-.413.652-1.033 1.606-1.377 2.12-.344.514-.626.955-.626.979 0 .023-.153.242-.339.486l-.338.444.046-.668c.025-.368.155-1.9.288-3.405.134-1.505.214-2.852.179-2.993-.064-.256-.067-.256-.827-.184-.42.04-1.107.066-1.527.058l-.765-.015-.112.32c-.17.49-.158 21.835.013 22.053.104.131.414.165 1.767.194 1.448.031 1.654.015 1.748-.132.107-.169.057-.827-.294-3.89a300.95 300.95 0 0 1-.242-2.189 380.45 380.45 0 0 0-.161-1.503c-.042-.38-.03-.534.038-.466.1.1.976 1.31 1.61 2.225.688.995 2.038 2.891 2.185 3.07.084.101.228.305.32.453.28.447 1.643 2.355 1.813 2.537.142.154.436.169 2.962.15 2.598-.018 2.807-.033 2.838-.197zm28.53-.216c.121-.122.142-1.318.136-8.005-.005-7.25-.019-7.873-.175-8.009-.13-.114-.618-.16-2.146-.207-1.874-.057-1.982-.05-2.079.13-.165.308-.139 15.879.027 16.016.078.065.718.109 1.619.112.82.002 1.513.027 1.54.055.114.113.943.042 1.077-.092zm-18.89-.961c.18-.096.197-.216.197-1.346 0-.682-.026-1.308-.058-1.391-.04-.105-.156-.138-.375-.11-.175.023-1.22.088-2.322.145-1.102.056-2.19.128-2.418.16l-.415.059.077-.436c.042-.24.106-1.427.141-2.64.036-1.212.088-2.722.116-3.356.099-2.205.35-8.98.413-11.143.053-1.82.04-2.185-.077-2.23-.078-.028-1.155-.064-2.393-.077l-2.252-.025-.065.45c-.09.632-.34 14.15-.34 18.385v3.507l1.452.051c2.979.106 8.12.104 8.32-.003zm18.674-17.892c.136-.053.158-.316.158-1.9 0-1.68-.016-1.848-.183-1.938-.101-.054-1.158-.13-2.35-.169l-2.164-.07-.06.24c-.032.132-.046 1.03-.03 1.994l.028 1.753.501.06c.688.081 3.904.105 4.1.03zM14.15 16.013c.09-.685.542-5.359.652-6.738.12-1.508.591-6.418.706-7.361.054-.44.098-1.037.098-1.327v-.53h9.21l-.28.427c-.529.8-1.392 2.129-2.23 3.431-.462.717-1.01 1.55-1.217 1.854-.208.303-.91 1.385-1.562 2.404a264.37 264.37 0 0 1-1.827 2.821c-.353.532-.998 1.524-1.433 2.204-1.379 2.155-2.066 3.19-2.117 3.19-.027 0-.027-.168 0-.375z" style="fill:#fd6531;stroke-width:.100188"/></svg>